<?xml version="1.0" encoding="utf-8"?>
<!-- Generator: Adobe Illustrator 16.0.0, SVG Export Plug-In . SVG Version: 6.00 Build 0)  -->
<!DOCTYPE svg PUBLIC "-//W3C//DTD SVG 1.1//EN" "http://www.w3.org/Graphics/SVG/1.1/DTD/svg11.dtd">
<svg version="1.1" id="Layer_1" xmlns="http://www.w3.org/2000/svg" xmlns:xlink="http://www.w3.org/1999/xlink" x="0px" y="0px"
	width="76.185px" height="102.248px" viewBox="0 0 76.185 102.248" enable-background="new 0 0 76.185 102.248"
	xml:space="preserve">
	<path fill-rule="evenodd" clip-rule="evenodd" fill="#FFFFFF" d="M39.597,59.248C39.958,58.054,16.229,2.88,16.229,2.88
		c-0.311-0.726-0.803-1.388-1.475-1.984C14.08,0.299,13.148,0,11.958,0H0l32.597,74.25v17.998l-13,10h38l-13-10v-18L76.185,0H65.158
		c-0.881,0-1.696,0.272-2.446,0.817c-0.751,0.545-1.281,1.233-1.592,2.063C61.12,2.88,39.337,58.054,39.597,59.248z"/>
		<path fill-rule="evenodd" clip-rule="evenodd" fill="#FFFFFF" d="M49.597,17.248l-10,26l-11-25c0,0,3.5-4.417,11-1
			S49.597,17.248,49.597,17.248z"/>
		</svg>
