<?xml version="1.0" encoding="utf-8"?>
<!-- Generator: Adobe Illustrator 16.0.0, SVG Export Plug-In . SVG Version: 6.00 Build 0)  -->
<!DOCTYPE svg PUBLIC "-//W3C//DTD SVG 1.1//EN" "http://www.w3.org/Graphics/SVG/1.1/DTD/svg11.dtd">
<svg version="1.1" id="Layer_1" xmlns="http://www.w3.org/2000/svg" xmlns:xlink="http://www.w3.org/1999/xlink" x="0px" y="0px"
	 width="90px" height="26px" viewBox="0 0 467.501 136.959" enable-background="new 0 0 467.501 136.959"
	 xml:space="preserve">
<g>
	<g>
		<path fill-rule="evenodd" clip-rule="evenodd" fill="#FFFFFF" d="M140.975,3.113c-0.907,0.728-1.489,1.557-1.748,2.491
			l-23.062,77.518c-0.415,1.35-0.751,2.802-1.009,4.358c-0.26,1.557-0.543,3.19-0.854,4.903c-0.726-3.476-1.553-6.563-2.484-9.262
			L85.804,5.604c-0.363-1.037-0.971-1.894-1.825-2.568c-0.854-0.674-1.955-1.012-3.3-1.012h-4.348c-1.295,0-2.395,0.377-3.3,1.128
			c-0.906,0.753-1.514,1.57-1.825,2.452L45.038,83.122c-0.466,1.35-0.881,2.841-1.243,4.475c-0.363,1.635-0.726,3.335-1.087,5.099
			c-0.311-1.764-0.635-3.45-0.971-5.06c-0.337-1.607-0.712-3.113-1.126-4.514L17.627,5.604c-0.311-1.037-0.906-1.894-1.786-2.568
			c-0.881-0.674-1.994-1.012-3.339-1.012H0l34.71,111.529h13.511l28.342-85.067c0.258-0.778,0.505-1.646,0.738-2.607
			c0.233-0.959,0.478-1.958,0.737-2.997c0.466,2.128,0.983,3.996,1.553,5.604l28.187,85.067h13.511L156,2.023h-11.725
			C142.98,2.023,141.879,2.387,140.975,3.113z M174.674,2.918c-0.907-0.907-1.955-1.621-3.145-2.14C170.338,0.26,169.07,0,167.725,0
			c-1.347,0-2.602,0.26-3.766,0.778c-1.165,0.519-2.201,1.233-3.106,2.14c-0.906,0.908-1.619,1.973-2.136,3.191
			c-0.518,1.22-0.776,2.504-0.776,3.853c0,1.35,0.259,2.607,0.776,3.775c0.517,1.167,1.229,2.206,2.136,3.113
			c0.905,0.908,1.941,1.622,3.106,2.14c1.165,0.519,2.419,0.778,3.766,0.778c1.345,0,2.613-0.259,3.805-0.778
			c1.19-0.518,2.238-1.232,3.145-2.14c0.905-0.907,1.63-1.946,2.174-3.113c0.543-1.167,0.815-2.425,0.815-3.775
			c0-1.349-0.271-2.633-0.815-3.853C176.305,4.891,175.579,3.827,174.674,2.918z M160.736,113.552h13.822V34.711h-13.822V113.552z
			 M248.364,41.677c-2.201-2.619-4.944-4.643-8.231-6.07c-3.288-1.427-7.08-2.141-11.375-2.141c-5.54,0-10.418,1.167-14.637,3.502
			c-4.22,2.335-8.037,5.397-11.454,9.184l-1.087-8.562c-0.518-1.919-1.76-2.88-3.728-2.88h-8.23v78.841h13.822v-58.06
			c3.001-3.373,6.276-6.044,9.822-8.017c3.545-1.971,7.364-2.958,11.454-2.958c5.591,0,9.745,1.648,12.463,4.942
			c2.717,3.295,4.076,7.926,4.076,13.893v50.199h13.822V63.353c0-4.462-0.57-8.535-1.709-12.219
			C252.233,47.45,250.563,44.298,248.364,41.677z M321.161,42.689c-2.899-2.983-6.342-5.266-10.327-6.849
			c-3.987-1.582-8.336-2.374-13.046-2.374c-5.695,0-10.82,1-15.375,2.997c-4.556,1.998-8.412,4.748-11.569,8.25
			c-3.158,3.502-5.579,7.641-7.261,12.414c-1.683,4.774-2.523,9.911-2.523,15.41c0,6.798,0.932,12.816,2.795,18.057
			c1.864,5.241,4.465,9.639,7.805,13.191c3.339,3.555,7.299,6.253,11.88,8.095c4.582,1.841,9.59,2.763,15.025,2.763
			c2.847,0,5.72-0.247,8.619-0.739c2.898-0.492,5.708-1.231,8.426-2.218c2.718-0.985,5.267-2.244,7.648-3.775
			c2.38-1.529,4.426-3.333,6.134-5.409l-3.882-5.059c-0.621-0.882-1.502-1.323-2.641-1.323c-0.881,0-1.929,0.402-3.145,1.206
			c-1.217,0.806-2.731,1.674-4.543,2.607c-1.813,0.935-3.974,1.804-6.483,2.607c-2.512,0.806-5.501,1.207-8.969,1.207
			c-3.728,0-7.093-0.609-10.095-1.829c-3.003-1.219-5.591-3.062-7.765-5.526c-2.175-2.464-3.883-5.538-5.125-9.223
			c-1.242-3.684-1.916-8.017-2.02-12.997h52.337c1.293,0,2.174-0.362,2.64-1.09c0.467-0.726,0.699-2.18,0.699-4.358
			c0-5.604-0.815-10.597-2.446-14.982C326.325,49.357,324.06,45.673,321.161,42.689z M275.192,65.532
			c0.932-6.849,3.312-12.206,7.144-16.071c3.83-3.865,9.085-5.798,15.763-5.798c3.157,0,5.966,0.533,8.426,1.595
			c2.458,1.064,4.542,2.568,6.25,4.514c1.709,1.946,3.002,4.255,3.883,6.927c0.88,2.673,1.32,5.617,1.32,8.833H275.192z
			 M375.747,33.311c-5.332,0-9.979,1.544-13.938,4.631c-3.96,3.088-7.287,7.382-9.978,12.881l-0.932-12.297
			c-0.208-1.401-0.596-2.386-1.165-2.958c-0.57-0.57-1.605-0.856-3.106-0.856h-7.92v78.841h13.821V63.353
			c2.175-5.344,4.879-9.417,8.115-12.219c3.234-2.802,7.26-4.203,12.074-4.203c2.691,0,4.788,0.247,6.29,0.74
			c1.5,0.494,2.613,0.739,3.339,0.739c1.242,0,2.044-0.648,2.407-1.946l1.785-10.351c-1.502-0.882-3.132-1.569-4.892-2.063
			C379.888,33.558,377.921,33.311,375.747,33.311z M435.913,108.959l31.588-74.248h-11.026c-0.881,0-1.696,0.272-2.446,0.817
			c-0.751,0.545-1.281,1.233-1.592,2.063c0,0-21.783,55.175-21.523,56.368c0.361-1.193-23.368-56.368-23.368-56.368
			c-0.311-0.726-0.803-1.388-1.475-1.984c-0.674-0.596-1.605-0.896-2.796-0.896h-11.958l32.597,74.25v17.998l-13,10h38l-13-10
			V108.959z M440.913,51.959c0,0-2.5,3.417-10,0s-11,1-11,1l11,25L440.913,51.959z"/>
	</g>
</g>
</svg>
